<svg width="56" height="52" viewBox="0 0 56 52" fill="none" xmlns="http://www.w3.org/2000/svg">
<g clip-path="url(#clip0_199_174)">
<path d="M4.50966 19.3193L-7.21216e-06 14.5087L0.95847 13.4126L4.50692 14.962L5.7907 15.6272L4.93121 14.4771L2.8672 11.2295L3.7852 10.1797L9.25661 13.8904L8.57698 14.6678L5.31776 12.3518L3.86941 11.2573L4.93995 12.7828L7.13901 16.4052L6.72949 16.8737L2.78409 15.248L1.10335 14.4199L2.38605 15.7035L5.16304 18.5713L4.50966 19.3193Z" fill="#025438"/>
<path d="M6.7388 8.76535C6.61212 8.87009 6.45112 8.92461 6.28663 8.91844C6.2024 8.9158 6.11989 8.89401 6.0454 8.85473C5.97092 8.81545 5.90643 8.75972 5.85687 8.6918C5.77692 8.59525 5.72931 8.47618 5.72073 8.3513C5.7114 8.22578 5.73104 8.09979 5.77815 7.983C5.82185 7.86862 5.89524 7.76785 5.99082 7.69099C6.05443 7.63149 6.13026 7.5865 6.21306 7.55912C6.29586 7.53174 6.38366 7.52264 6.47034 7.53245C6.62778 7.5583 6.76937 7.64306 6.86619 7.76944C6.92759 7.84131 6.97234 7.92577 6.99729 8.01682C7.02224 8.10787 7.02677 8.20329 7.01054 8.29627C6.98351 8.48151 6.88626 8.64938 6.7388 8.76535ZM10.0193 13.5406L6.93617 9.72311L7.72842 9.08733L10.8116 12.9053L10.0193 13.5406Z" fill="#025438"/>
<path d="M11.612 12.2233L9.04884 8.04133L9.83015 7.56626L10.1035 8.00755C10.1782 7.84892 10.2635 7.69549 10.3589 7.54828C10.4735 7.36808 10.603 7.19769 10.746 7.03888C10.8902 6.87674 11.0557 6.73473 11.2381 6.61666C11.4017 6.48546 11.5944 6.39502 11.8002 6.35286C12.006 6.31069 12.2189 6.31802 12.4212 6.37422C12.8919 6.61916 13.2716 7.00764 13.5049 7.4829L15.1075 10.098L14.2326 10.6308L12.6591 8.06203C12.5185 7.79081 12.3103 7.56022 12.0544 7.39246C11.8659 7.29694 11.6199 7.3536 11.3162 7.56244C11.2171 7.6299 11.1255 7.70771 11.0429 7.79453C10.9419 7.89886 10.8504 8.0119 10.7695 8.13231C10.6817 8.26114 10.6092 8.39973 10.5535 8.54527L12.4852 11.697L11.612 12.2233Z" fill="#025438"/>
<path d="M17.5214 9.162C17.2069 9.28456 16.8651 9.32087 16.5318 9.26715C16.1769 9.20595 15.8475 9.04336 15.5837 8.79916C15.2533 8.48522 15.0036 8.09676 14.8554 7.66651C14.6708 7.21682 14.5967 6.72966 14.6394 6.24566C14.6798 5.8124 14.8412 5.39907 15.1053 5.05253C15.388 4.69341 15.7672 4.42157 16.1988 4.26856C16.4383 4.16954 16.6928 4.11117 16.9517 4.09586C17.0969 4.08283 17.2432 4.09295 17.3853 4.12583L17.2797 4.86022C17.1562 4.82006 17.0244 4.81237 16.897 4.83788C16.7256 4.86924 16.5579 4.91761 16.3962 4.98225C16.169 5.06642 15.9736 5.21869 15.8368 5.4181C15.6913 5.64117 15.6117 5.9006 15.6072 6.16666C15.6014 6.51351 15.6665 6.85792 15.7986 7.17891C15.9173 7.60824 16.1763 7.9859 16.5345 8.25217C16.6788 8.33859 16.8418 8.3892 17.0099 8.39972C17.1779 8.41024 17.346 8.38038 17.5001 8.31265C17.6999 8.24005 17.8809 8.1239 18.0299 7.97269C18.1457 7.85735 18.2483 7.72943 18.3355 7.59133L18.6729 8.00048C18.6331 8.09418 18.5774 8.2115 18.5056 8.35242C18.4182 8.51364 18.3046 8.65927 18.1693 8.78336C17.9808 8.95128 17.7605 9.08 17.5214 9.162ZM18.7789 8.60521L18.5438 7.99611L18.4848 7.99012L17.2354 4.74908L17.2589 4.71203L16.8762 3.81964L16.1501 1.93516L17.0999 1.57178L19.6784 8.26034L18.7789 8.60521Z" fill="#025438"/>
<path d="M20.9244 7.98082L20.0053 3.92747L19.2945 4.0871L19.1688 3.53248L19.8397 3.19198L19.7445 2.77085C19.666 2.46841 19.6516 2.15296 19.7024 1.84468C19.7457 1.604 19.846 1.37707 19.9949 1.18274C20.1314 1.00791 20.3017 0.862121 20.4957 0.753975C20.6777 0.65151 20.8734 0.575562 21.077 0.528434C21.2085 0.498614 21.3424 0.48038 21.4772 0.47395C21.5644 0.469133 21.6519 0.469133 21.7391 0.47395L21.9124 1.23667C21.8144 1.2296 21.7161 1.23052 21.6182 1.2394C21.471 1.25527 21.3249 1.28056 21.1808 1.31513C21.0871 1.33444 20.999 1.37473 20.9233 1.43297C20.8475 1.49121 20.786 1.56586 20.7434 1.65127C20.6459 1.88092 20.6327 2.1375 20.7063 2.37586L20.8402 2.96916L22.0097 2.70602L22.1737 3.44096L21.0048 3.7041L21.9239 7.75745L20.9244 7.98082Z" fill="#025438"/>
<path d="M25.042 7.34341C24.7761 7.37467 24.5066 7.3439 24.2547 7.25352C24.0569 7.17489 23.8883 7.03733 23.7719 6.85962C23.6459 6.66066 23.5575 6.44037 23.5111 6.20967C23.4505 5.92868 23.4099 5.64375 23.3897 5.35705L23.171 2.49301L24.1853 2.41511L24.404 5.27097C24.4139 5.55896 24.4666 5.8439 24.5604 6.11651C24.5842 6.19077 24.6243 6.25885 24.6777 6.31584C24.7311 6.37283 24.7965 6.41731 24.8693 6.44611C25.0339 6.49245 25.2061 6.50633 25.3761 6.48698C25.5069 6.47579 25.6356 6.4474 25.7588 6.40253C25.8877 6.35686 26.0132 6.30224 26.1345 6.23909C26.2306 6.19098 26.3221 6.13427 26.4078 6.06965L26.1148 2.26474L27.129 2.18738L27.5117 7.15164L27.0443 7.18759C26.9337 7.20084 26.8215 7.18892 26.7162 7.15273C26.6337 7.1195 26.5861 7.02143 26.5735 6.86071L26.5473 6.51749L26.5801 6.7098C26.4398 6.81701 26.2905 6.91198 26.1339 6.99364C25.9596 7.08592 25.7778 7.16338 25.5904 7.22519C25.4132 7.28673 25.229 7.32643 25.042 7.34341Z" fill="#025438"/>
<path d="M28.5653 7.15656L28.9093 0L29.9339 0.0490305L29.59 7.20559L28.5653 7.15656Z" fill="#025438"/>
<path d="M32.2385 7.43275L33.788 1.05853L34.2587 1.18112C34.3991 1.2149 34.5436 1.24449 34.6923 1.26992C34.8405 1.29498 35.0007 1.3244 35.1724 1.35436C35.3441 1.38433 35.5338 1.42628 35.7432 1.4764C36.1571 1.56284 36.5512 1.72563 36.905 1.95637C37.1628 2.12526 37.3624 2.36884 37.477 2.65427C37.5738 2.92924 37.5854 3.22688 37.5103 3.50853C37.4583 3.71479 37.3741 3.91167 37.261 4.09201C37.1474 4.27745 36.9948 4.43617 36.8137 4.55727C36.6257 4.68051 36.4057 4.74641 36.1806 4.74686C36.4299 4.81911 36.6534 4.96043 36.8252 5.15438C36.997 5.34719 37.1209 5.57745 37.1872 5.82667C37.2556 6.0801 37.2581 6.34674 37.1943 6.60138C37.1151 6.95802 36.9499 7.2901 36.7131 7.56895C36.4593 7.84301 36.1186 8.02156 35.7481 8.07453C35.2049 8.14431 34.6531 8.10222 34.127 7.95086C33.8776 7.89057 33.6225 7.82047 33.3615 7.74057L32.7382 7.55152L32.2385 7.43275ZM33.42 6.91574C33.4907 6.97205 33.5714 7.01457 33.6578 7.04104C33.7748 7.08462 33.9024 7.1253 34.0406 7.16307C34.1787 7.20085 34.2977 7.2319 34.3976 7.25624C34.7704 7.36816 35.1675 7.37118 35.542 7.26495C35.6886 7.18367 35.8172 7.07385 35.9203 6.94202C36.0235 6.81019 36.0989 6.65904 36.1422 6.49756C36.1855 6.33608 36.1958 6.16758 36.1724 6.00206C36.1491 5.83655 36.0925 5.6774 36.0062 5.5341C35.7286 5.25521 35.3695 5.071 34.9805 5.00783C34.9006 4.98822 34.8126 4.96588 34.7169 4.94191C34.6212 4.91793 34.525 4.89396 34.4288 4.87272C34.3325 4.85147 34.2429 4.83077 34.1592 4.81388C34.087 4.79854 34.014 4.78691 33.9405 4.77901L33.42 6.91574ZM34.122 4.02827C34.1949 4.05841 34.279 4.08711 34.3741 4.11435C34.4676 4.14104 34.5649 4.16883 34.6655 4.18898L34.9569 4.25436C35.0499 4.2756 35.1357 4.29576 35.2134 4.31429C35.346 4.35069 35.4847 4.3598 35.621 4.34107C35.7573 4.32234 35.8884 4.27615 36.0062 4.20533C36.138 4.11235 36.2499 3.99403 36.3351 3.85733C36.4204 3.72064 36.4773 3.56833 36.5026 3.40937C36.5461 3.27305 36.5533 3.12781 36.5235 2.9879C36.4937 2.84798 36.4279 2.71818 36.3326 2.61123C36.0758 2.3672 35.7525 2.20403 35.4031 2.14215C35.3512 2.13016 35.2697 2.11219 35.1587 2.08767C35.0477 2.06316 34.94 2.04572 34.8339 2.02992C34.7605 2.01557 34.6856 2.00953 34.6108 2.01194L34.122 4.02827Z" fill="#025438"/>
<path d="M37.3326 8.83071L39.2238 4.30884L40.0238 4.64117L39.8477 5.24644L39.7782 5.61854L38.2714 9.22243L37.3326 8.83071ZM39.6137 5.87297L39.8149 5.23119C39.9256 5.14759 40.0532 5.08903 40.1889 5.05957C40.3756 5.01006 40.5682 4.98641 40.7613 4.9893C40.9642 4.98876 41.1651 5.0284 41.3524 5.10589C41.442 5.14218 41.5296 5.18328 41.6148 5.22901C41.6711 5.25618 41.721 5.29478 41.7613 5.34233L41.3945 6.22055C41.3469 6.16709 41.2943 6.11821 41.2375 6.07455C41.1179 5.99032 40.9878 5.922 40.8504 5.87134C40.6967 5.80478 40.5327 5.76479 40.3655 5.75311C40.2233 5.74387 40.0805 5.75285 39.9406 5.77981C39.8289 5.80046 39.7195 5.83165 39.6137 5.87297Z" fill="#025438"/>
<path d="M41.3294 10.7817C41.093 10.6478 40.8923 10.4595 40.7438 10.2325C40.6088 10.024 40.5357 9.78171 40.5328 9.53356C40.5337 9.26802 40.6095 9.00806 40.7515 8.78337C40.8915 8.53193 41.113 8.33525 41.3797 8.22549C41.6506 8.12224 41.9435 8.08998 42.2305 8.13178C42.4422 8.16494 42.6504 8.21709 42.8527 8.28759C43.0639 8.36023 43.2708 8.445 43.4722 8.54147C43.6723 8.63809 43.8534 8.73434 44.0156 8.83022L44.0599 9.16964L43.6947 9.36794C43.5957 9.30965 43.4733 9.2459 43.3267 9.17835C43.1812 9.11067 43.0318 9.05137 42.8794 9.00074C42.7472 8.95429 42.61 8.92375 42.4705 8.90976C42.3177 8.89017 42.1626 8.90091 42.014 8.94136C41.8605 8.99226 41.733 9.10071 41.6586 9.24372C41.5999 9.32814 41.5598 9.42396 41.541 9.5249C41.5221 9.62584 41.5249 9.72961 41.5492 9.82939C41.6269 10.0363 41.7805 10.2061 41.979 10.3045C42.1012 10.3765 42.2332 10.4307 42.371 10.4652C42.4986 10.4994 42.6291 10.5218 42.7608 10.5322C42.8433 10.5424 42.927 10.5382 43.008 10.5197L43.0719 10.8084L42.7521 11.0601C42.5361 11.0959 42.3157 11.0959 42.0998 11.0601C41.8268 11.0198 41.5649 10.9251 41.3294 10.7817ZM43.3694 11.9078L42.5405 11.4175L42.9156 10.7888L42.8663 10.7594L44.2534 8.4336C44.3212 8.34959 44.3658 8.2494 44.3828 8.14295C44.3998 8.03651 44.3885 7.92748 44.3502 7.82668C44.2319 7.63619 44.0642 7.48109 43.8647 7.37777C43.6986 7.28019 43.5238 7.19812 43.3426 7.1326C43.1672 7.06763 42.9876 7.01449 42.8051 6.97352C42.6703 6.9404 42.5322 6.92303 42.3934 6.92177L42.5634 6.17157C42.706 6.17776 42.8478 6.19488 42.9877 6.22278C43.2194 6.26522 43.4481 6.32273 43.6723 6.39494C43.9189 6.4718 44.1558 6.57692 44.3781 6.7082C44.6598 6.86842 44.9154 7.07051 45.1359 7.30749C45.3187 7.50551 45.4229 7.76308 45.429 8.03208C45.412 8.3804 45.2985 8.71722 45.101 9.0051L43.3694 11.9078Z" fill="#025438"/>
<path d="M44.1387 12.433L47.3333 8.70819L48.0288 9.3004L47.6936 9.69865C48.081 9.74675 48.4595 9.85023 48.8173 10.0059C49.0163 10.0917 49.2027 10.2039 49.3717 10.3393C49.5478 10.4535 49.6941 10.6079 49.7982 10.7898C49.9024 10.9716 49.9614 11.1756 49.9703 11.3848C49.8823 11.9065 49.6295 12.3865 49.2487 12.755L47.2519 15.0835L46.4716 14.4194L48.434 12.1312C48.6496 11.9139 48.8052 11.6448 48.8856 11.3499C48.9184 11.1422 48.7879 10.9268 48.4941 10.7038C48.3992 10.6299 48.2963 10.5667 48.1874 10.5153C48.0566 10.4513 47.9202 10.3992 47.78 10.3595C47.6298 10.3166 47.4752 10.291 47.3191 10.2832L44.9134 13.0906L44.1387 12.433Z" fill="#025438"/>
<path d="M48.8932 17.0748C48.6787 16.8151 48.5375 16.5031 48.4843 16.1709C48.4321 15.8159 48.4845 15.4535 48.6352 15.1276C48.8315 14.7169 49.124 14.3593 49.4881 14.0849C49.8593 13.7699 50.3005 13.5478 50.7752 13.4371C51.201 13.3403 51.6455 13.3643 52.0584 13.5063C52.4887 13.6619 52.8661 13.9356 53.147 14.2957C53.3157 14.4917 53.4506 14.7143 53.5461 14.9544C53.6039 15.0878 53.6397 15.2296 53.6522 15.3744L52.9196 15.5035C52.9195 15.3732 52.8854 15.2452 52.8206 15.132C52.737 14.9795 52.6385 14.8357 52.5264 14.7027C52.3754 14.5138 52.1693 14.3764 51.9365 14.3093C51.6781 14.2412 51.4057 14.2466 51.1502 14.3251C50.8178 14.4279 50.5097 14.597 50.2448 14.822C49.8725 15.0683 49.5932 15.4312 49.4509 15.8533C49.4138 16.0169 49.4165 16.1869 49.4589 16.3492C49.5014 16.5115 49.5823 16.6613 49.6948 16.786C49.8263 16.9527 49.9935 17.088 50.1841 17.1821C50.3303 17.2558 50.4844 17.3128 50.6434 17.3521L50.3585 17.7993C50.2572 17.7906 50.1282 17.7745 49.9714 17.7509C49.7906 17.7182 49.6163 17.656 49.4558 17.5667C49.2373 17.4417 49.046 17.2744 48.8932 17.0748ZM49.8173 18.0925L50.3241 17.68L50.3115 17.6223L53.0125 15.4284L53.0552 15.4393L53.7873 14.7991L55.357 13.5243L56 14.3093L50.4264 18.8372L49.8173 18.0925Z" fill="#025438"/>
<path d="M47.6844 29.7796C46.1911 29.7405 44.6982 29.8718 43.2348 30.1708C42.3726 30.3533 41.5235 30.5941 40.6706 30.8076C40.6268 30.3059 40.5803 29.7921 40.5382 29.2778C40.3753 27.4215 39.936 25.5997 39.2348 23.8723C38.9958 23.2703 38.6557 23.1068 38.0735 23.3645C37.378 23.6723 36.6863 23.9932 36.0166 24.3523C35.3796 24.6938 34.7743 25.0921 34.1335 25.4778C33.8601 24.9875 33.5868 24.4972 33.3085 24.0128C31.9319 21.6207 30.2413 19.4221 28.2816 17.4752C28.2149 17.3942 28.131 17.329 28.036 17.2842C27.941 17.2394 27.8372 17.2162 27.7321 17.2162C27.627 17.2162 27.5232 17.2394 27.4281 17.2842C27.3331 17.329 27.2493 17.3942 27.1826 17.4752C26.8846 17.765 26.6052 18.0745 26.3209 18.3774C24.6631 20.1485 23.222 22.1093 22.0278 24.2188C21.7866 24.6437 21.5521 25.0725 21.3126 25.5029C20.0622 24.6331 18.7188 23.9043 17.3071 23.3297C17.2114 23.2803 17.106 23.2523 16.9984 23.2476C16.8907 23.243 16.7834 23.2619 16.6838 23.3029C16.5842 23.344 16.4949 23.4062 16.4219 23.4853C16.349 23.5643 16.2943 23.6583 16.2617 23.7606C15.7376 25.0247 15.3608 26.3445 15.1386 27.6941C14.9855 28.7292 14.8762 29.7698 14.7428 30.8393C12.5324 30.1025 10.2132 29.7423 7.8826 29.7736C7.08433 29.7812 6.80111 30.046 6.87054 30.8458C6.94982 31.7616 7.03458 32.6829 7.20408 33.5845C8.02984 38.1864 10.4799 42.3423 14.1118 45.3016C17.5823 48.2281 21.9549 49.8805 26.5002 49.9832C27.047 49.9832 27.7539 49.9625 28.1509 49.4291C28.3537 49.1504 28.4861 48.8271 28.5369 48.4866H28.5342C29.0487 39.5441 36.7716 31.3154 47.0857 31.2707C46.8054 35.1711 45.2834 38.8806 42.7411 41.8596C40.0347 45.0819 36.3112 47.2942 32.1794 48.1346C32.0296 48.1542 31.8798 48.1733 31.73 48.1951C32.2035 47.4324 32.6245 46.7481 33.0515 46.0796C33.2702 45.7348 33.3489 45.3899 32.9629 45.1485C32.5769 44.9072 32.2937 45.1082 32.0766 45.4607C31.4156 46.534 30.742 47.5996 30.0804 48.6751C29.7485 49.2128 29.8038 49.4345 30.3538 49.7761C31.4413 50.4539 32.5348 51.1212 33.6218 51.799C33.975 52.0169 34.3282 52.1564 34.589 51.7102C34.8454 51.2743 34.5594 51.0194 34.2062 50.8058C33.5622 50.4146 32.9235 50.0148 32.2833 49.6181C32.8784 49.5135 33.4673 49.376 34.0471 49.2063C34.2325 49.1518 34.4085 49.0821 34.5939 49.0227C34.9158 48.9253 35.2336 48.8184 35.5474 48.7018L35.5671 48.6942C35.991 48.5358 36.4067 48.3607 36.8143 48.169C36.9192 48.121 37.0253 48.0736 37.1298 48.024C37.1456 48.0164 37.1626 48.0093 37.1784 48.0017C40.4597 46.4194 43.2524 43.985 45.2624 40.9547C47.2724 37.9244 48.4254 34.4102 48.6002 30.782C48.6346 30.0896 48.3815 29.7927 47.6844 29.7796ZM27.7277 19.0257C29.8296 21.2151 31.5848 23.7105 32.9328 26.4263C30.7645 28.2078 28.9919 30.4194 27.7277 32.9204C26.4632 30.4165 24.6894 28.2023 22.5193 26.4187C23.8736 23.708 25.63 21.2161 27.7293 19.0268L27.7277 19.0257ZM16.3147 30.4731C16.3786 28.701 16.7047 26.948 17.2824 25.2708C17.3147 25.1744 17.3535 25.0796 17.4235 24.8943C18.4301 25.4882 19.4465 26.009 20.3798 26.6546C22.9057 28.3897 24.9547 30.7281 26.3395 33.456C26.3596 33.497 26.3821 33.5368 26.4067 33.5753C26.6213 33.8994 26.7501 34.2723 26.7809 34.6594C26.8118 35.0464 26.7439 35.435 26.5834 35.7888C26.1459 37.0217 25.9272 38.3292 25.6194 39.5899C24.7971 38.2438 23.825 36.9945 22.7216 35.8656C21.1097 34.2099 19.2205 32.8469 17.1387 31.8379C16.2868 31.4244 16.2868 31.438 16.3147 30.4731ZM8.3949 31.2849C13.0926 31.3014 17.6114 33.0822 21.0496 36.2719C24.4878 39.4616 26.5927 43.8258 26.9442 48.4937C17.9954 48.6598 9.0789 41.4183 8.3949 31.2849ZM38.9155 31.5453C35.14 33.2252 31.9751 36.0226 29.8508 39.5572C28.9609 41.0107 28.2714 42.5769 27.801 44.2137C27.7862 44.2638 27.7649 44.3117 27.7255 44.4174C27.6159 44.0065 27.4793 43.6032 27.3165 43.2101C27.0472 42.5466 26.9589 41.8239 27.0607 41.1154C27.1807 38.6052 27.809 36.1451 28.9076 33.8831C30.78 29.9559 33.9872 26.816 37.9608 25.0196C37.9909 25.0055 38.0243 24.9984 38.15 24.9559C38.4135 26.0717 38.7301 27.1635 38.9155 28.2792C39.074 29.2288 39.0757 30.2035 39.1604 31.1667C39.1742 31.2491 39.1567 31.3336 39.1115 31.4038C39.0662 31.4741 38.9963 31.5251 38.9155 31.547V31.5453Z" fill="#025438"/>
</g>
<defs>
<clipPath id="clip0_199_174">
<rect width="56" height="52" fill="white"/>
</clipPath>
</defs>
</svg>
